<?xml version="1.0" encoding="UTF-8" standalone="no"?>
<!DOCTYPE svg PUBLIC "-//W3C//DTD SVG 1.1//EN"
 "http://www.w3.org/Graphics/SVG/1.1/DTD/svg11.dtd">
<!-- Generated by graphviz version 12.1.2 (20240928.0832)
 -->
<!-- Pages: 1 -->
<svg width="582pt" height="221pt"
 viewBox="0.00 0.00 581.68 221.00" xmlns="http://www.w3.org/2000/svg" xmlns:xlink="http://www.w3.org/1999/xlink">
<g id="graph0" class="graph" transform="scale(1 1) rotate(0) translate(4 217)">
<polygon fill="white" stroke="none" points="-4,4 -4,-217 577.68,-217 577.68,4 -4,4"/>
<!-- 1987667141168 -->
<g id="node1" class="node">
<title>1987667141168</title>
<ellipse fill="none" stroke="black" cx="347.3" cy="-195" rx="130.68" ry="18"/>
<text text-anchor="middle" x="347.3" y="-189.95" font-family="Times New Roman,serif" font-size="14.00">worst concave points&lt;=0.14235</text>
</g>
<!-- 1987667146640 -->
<g id="node2" class="node">
<title>1987667146640</title>
<ellipse fill="none" stroke="black" cx="239.3" cy="-106.5" rx="81.55" ry="18"/>
<text text-anchor="middle" x="239.3" y="-101.45" font-family="Times New Roman,serif" font-size="14.00">mean area&lt;=495.8</text>
</g>
<!-- 1987667141168&#45;&gt;1987667146640 -->
<g id="edge3" class="edge">
<title>1987667141168&#45;&gt;1987667146640</title>
<path fill="none" stroke="black" d="M325.97,-176.91C309.74,-163.91 287.21,-145.87 269.18,-131.43"/>
<polygon fill="black" stroke="black" points="271.4,-128.73 261.41,-125.21 267.03,-134.19 271.4,-128.73"/>
<text text-anchor="middle" x="311.98" y="-145.7" font-family="Times New Roman,serif" font-size="14.00">yes</text>
</g>
<!-- 1987667137472 -->
<g id="node5" class="node">
<title>1987667137472</title>
<ellipse fill="none" stroke="black" cx="456.3" cy="-106.5" rx="117.37" ry="18"/>
<text text-anchor="middle" x="456.3" y="-101.45" font-family="Times New Roman,serif" font-size="14.00">left=&#45;0.15257210493784457</text>
</g>
<!-- 1987667141168&#45;&gt;1987667137472 -->
<g id="edge4" class="edge">
<title>1987667141168&#45;&gt;1987667137472</title>
<path fill="none" stroke="black" d="M368.84,-176.91C385.26,-163.88 408.08,-145.77 426.29,-131.32"/>
<polygon fill="black" stroke="black" points="427.97,-134.45 433.63,-125.49 423.62,-128.97 427.97,-134.45"/>
<text text-anchor="middle" x="418.32" y="-145.7" font-family="Times New Roman,serif" font-size="14.00">no</text>
</g>
<!-- 1987667146832 -->
<g id="node3" class="node">
<title>1987667146832</title>
<ellipse fill="none" stroke="black" cx="114.3" cy="-18" rx="114.3" ry="18"/>
<text text-anchor="middle" x="114.3" y="-12.95" font-family="Times New Roman,serif" font-size="14.00">left=0.12469713436521242</text>
</g>
<!-- 1987667146640&#45;&gt;1987667146832 -->
<g id="edge1" class="edge">
<title>1987667146640&#45;&gt;1987667146832</title>
<path fill="none" stroke="black" d="M215.2,-88.82C196.13,-75.62 169.27,-57.04 148.06,-42.36"/>
<polygon fill="black" stroke="black" points="150.22,-39.6 140,-36.78 146.23,-45.35 150.22,-39.6"/>
<text text-anchor="middle" x="197" y="-57.2" font-family="Times New Roman,serif" font-size="14.00">yes</text>
</g>
<!-- 1987667140736 -->
<g id="node4" class="node">
<title>1987667140736</title>
<ellipse fill="none" stroke="black" cx="365.3" cy="-18" rx="118.91" ry="18"/>
<text text-anchor="middle" x="365.3" y="-12.95" font-family="Times New Roman,serif" font-size="14.00">left=0.052161513487282575</text>
</g>
<!-- 1987667146640&#45;&gt;1987667140736 -->
<g id="edge2" class="edge">
<title>1987667146640&#45;&gt;1987667140736</title>
<path fill="none" stroke="black" d="M263.3,-89.03C282.49,-75.85 309.65,-57.2 331.12,-42.47"/>
<polygon fill="black" stroke="black" points="333.02,-45.41 339.29,-36.86 329.06,-39.63 333.02,-45.41"/>
<text text-anchor="middle" x="320.34" y="-57.2" font-family="Times New Roman,serif" font-size="14.00">no</text>
</g>
</g>
</svg>
