<?xml version="1.0" encoding="UTF-8" standalone="no"?>
<!DOCTYPE svg PUBLIC "-//W3C//DTD SVG 1.1//EN"
 "http://www.w3.org/Graphics/SVG/1.1/DTD/svg11.dtd">
<!-- Generated by graphviz version 12.1.2 (20240928.0832)
 -->
<!-- Pages: 1 -->
<svg width="588pt" height="221pt"
 viewBox="0.00 0.00 587.75 221.00" xmlns="http://www.w3.org/2000/svg" xmlns:xlink="http://www.w3.org/1999/xlink">
<g id="graph0" class="graph" transform="scale(1 1) rotate(0) translate(4 217)">
<polygon fill="white" stroke="none" points="-4,4 -4,-217 583.75,-217 583.75,4 -4,4"/>
<!-- 1826287998848 -->
<g id="node1" class="node">
<title>1826287998848</title>
<ellipse fill="none" stroke="black" cx="405.84" cy="-195" rx="130.68" ry="18"/>
<text text-anchor="middle" x="405.84" y="-189.95" font-family="Times New Roman,serif" font-size="14.00">worst concave points&lt;=0.14235</text>
</g>
<!-- 1826288004512 -->
<g id="node2" class="node">
<title>1826288004512</title>
<ellipse fill="none" stroke="black" cx="242.84" cy="-106.5" rx="81.55" ry="18"/>
<text text-anchor="middle" x="242.84" y="-101.45" font-family="Times New Roman,serif" font-size="14.00">mean area&lt;=495.8</text>
</g>
<!-- 1826287998848&#45;&gt;1826288004512 -->
<g id="edge3" class="edge">
<title>1826287998848&#45;&gt;1826288004512</title>
<path fill="none" stroke="black" d="M374.02,-177.12C348.03,-163.32 311.14,-143.74 283.09,-128.86"/>
<polygon fill="black" stroke="black" points="285.01,-125.92 274.53,-124.32 281.73,-132.1 285.01,-125.92"/>
<text text-anchor="middle" x="347.94" y="-145.7" font-family="Times New Roman,serif" font-size="14.00">yes</text>
</g>
<!-- 1826287996832 -->
<g id="node5" class="node">
<title>1826287996832</title>
<ellipse fill="none" stroke="black" cx="460.84" cy="-106.5" rx="118.91" ry="18"/>
<text text-anchor="middle" x="460.84" y="-101.45" font-family="Times New Roman,serif" font-size="14.00">leaf=&#45;0.15257210493784457</text>
</g>
<!-- 1826287998848&#45;&gt;1826287996832 -->
<g id="edge4" class="edge">
<title>1826287998848&#45;&gt;1826287996832</title>
<path fill="none" stroke="black" d="M416.71,-176.91C424.41,-164.79 434.92,-148.27 443.74,-134.39"/>
<polygon fill="black" stroke="black" points="446.58,-136.44 449,-126.13 440.68,-132.69 446.58,-136.44"/>
<text text-anchor="middle" x="445.02" y="-145.7" font-family="Times New Roman,serif" font-size="14.00">no</text>
</g>
<!-- 1826288003120 -->
<g id="node3" class="node">
<title>1826288003120</title>
<ellipse fill="none" stroke="black" cx="115.84" cy="-18" rx="115.84" ry="18"/>
<text text-anchor="middle" x="115.84" y="-12.95" font-family="Times New Roman,serif" font-size="14.00">leaf=0.12469713436521242</text>
</g>
<!-- 1826288004512&#45;&gt;1826288003120 -->
<g id="edge1" class="edge">
<title>1826288004512&#45;&gt;1826288003120</title>
<path fill="none" stroke="black" d="M218.65,-89.03C199.31,-75.85 171.93,-57.2 150.29,-42.47"/>
<polygon fill="black" stroke="black" points="152.29,-39.59 142.05,-36.86 148.35,-45.38 152.29,-39.59"/>
<text text-anchor="middle" x="199.71" y="-57.2" font-family="Times New Roman,serif" font-size="14.00">yes</text>
</g>
<!-- 1826288005184 -->
<g id="node4" class="node">
<title>1826288005184</title>
<ellipse fill="none" stroke="black" cx="369.84" cy="-18" rx="120.45" ry="18"/>
<text text-anchor="middle" x="369.84" y="-12.95" font-family="Times New Roman,serif" font-size="14.00">leaf=0.052161513487282575</text>
</g>
<!-- 1826288004512&#45;&gt;1826288005184 -->
<g id="edge2" class="edge">
<title>1826288004512&#45;&gt;1826288005184</title>
<path fill="none" stroke="black" d="M267.03,-89.03C286.37,-75.85 313.75,-57.2 335.39,-42.47"/>
<polygon fill="black" stroke="black" points="337.33,-45.38 343.62,-36.86 333.39,-39.59 337.33,-45.38"/>
<text text-anchor="middle" x="324.46" y="-57.2" font-family="Times New Roman,serif" font-size="14.00">no</text>
</g>
</g>
</svg>
